# xmcd
#
# Track frame offsets:
#	150
#	18032
#	86747
#	138122
#	170837
#
# Disc length: 2635 seconds
#
# Revision: 0
# Processed by: cddbd v1.5.1PL0 Copyright (c) Steve Scherf et al.
# Submitted via: dBpowerAMP V4.0
#
DISCID=350a4905
DTITLE=Albert King - The Best Of
DYEAR=2001
DGENRE=Blues
TTITLE0=Kansas City
TTITLE1=Someday Baby
TTITLE2=Truckers Blues
TTITLE3=As Years Go Passing By
TTITLE4=Rainin' In California
EXTD=Recorded in Canada with unknown group
EXTT0=
EXTT1=
EXTT2=
EXTT3=
EXTT4=
PLAYORDER=
